<svg width="24" height="24" viewBox="0 0 24 24" fill="none" xmlns="http://www.w3.org/2000/svg">
<path d="M12 2C17.5228 2 22 6.47715 22 12C22 17.5228 17.5228 22 12 22C10.6717 22 9.40152 21.7406 8.23926 21.2686C8.13459 21.226 8.07401 21.2014 8.0293 21.1846C8.02335 21.1823 8.01791 21.1802 8.01367 21.1787L8.01074 21.1797C7.97386 21.1847 7.92309 21.193 7.82715 21.209L4.26953 21.8027C4.10188 21.8307 3.90957 21.8635 3.74414 21.876C3.57396 21.8888 3.30272 21.8932 3.0166 21.7705C2.6631 21.6188 2.38119 21.3369 2.22949 20.9834C2.10677 20.6973 2.11118 20.426 2.12402 20.2559C2.13652 20.0904 2.16932 19.8981 2.19727 19.7305L2.79102 16.1729C2.80701 16.0769 2.81531 16.0261 2.82031 15.9893V15.9844C2.81893 15.9806 2.81732 15.9757 2.81543 15.9707C2.79863 15.926 2.77395 15.8654 2.73145 15.7607C2.25943 14.5985 2 13.3283 2 12C2 6.47715 6.47715 2 12 2ZM16.5547 13.1055C16.0952 12.914 15.4743 12.9912 15.168 13.2783C14.4045 13.9941 13.2694 14.25 12 14.25C10.7306 14.25 9.59556 13.9941 8.83203 13.2783C8.52568 12.9911 7.90484 12.914 7.44531 13.1055C6.98585 13.2969 6.86163 13.6845 7.16797 13.9717C8.40444 15.1309 10.2695 15.5 12 15.5C13.7305 15.5 15.5956 15.1308 16.832 13.9717C17.1382 13.6845 17.014 13.297 16.5547 13.1055Z" fill="#31D3D3"/>
</svg>
