<svg width="24" height="24" viewBox="0 0 24 24" fill="none" xmlns="http://www.w3.org/2000/svg">
<path d="M9 3.5V2M5.06066 5.06066L4 4M5.06066 13L4 14.0607M13 5.06066L14.0607 4M3.5 9H2" stroke="#31D3D3" stroke-width="2" stroke-linecap="round" stroke-linejoin="round"/>
<path d="M20.816 13.3718C21.3447 13.0872 21.609 12.9448 21.6759 12.7736C21.7339 12.625 21.7175 12.4576 21.6318 12.3231C21.533 12.168 21.2461 12.0797 20.6723 11.9029L9.4443 8.44424C8.97556 8.29985 8.74119 8.22766 8.58289 8.28575C8.44501 8.33635 8.33635 8.44501 8.28575 8.58289C8.22766 8.74118 8.29985 8.97556 8.44424 9.4443L11.9029 20.6723C12.0796 21.2461 12.168 21.533 12.323 21.6318C12.4576 21.7175 12.6249 21.7339 12.7736 21.6759C12.9448 21.6091 13.0871 21.3447 13.3718 20.8161L15.8635 16.1886C15.9058 16.1101 15.927 16.0708 15.9542 16.0364C15.9783 16.0059 16.0059 15.9783 16.0364 15.9542C16.0708 15.927 16.1101 15.9058 16.1886 15.8635L20.816 13.3718Z" fill="#31D3D3" stroke="#31D3D3" stroke-width="2" stroke-linecap="round" stroke-linejoin="round"/>
</svg>
