<svg width="24" height="24" viewBox="0 0 24 24" fill="none" xmlns="http://www.w3.org/2000/svg">
<path d="M9.75 20.7467L11.223 21.565C11.5066 21.7225 11.6484 21.8013 11.7986 21.8322C11.9315 21.8595 12.0685 21.8595 12.2015 21.8322C12.3516 21.8013 12.4934 21.7225 12.777 21.565L14.25 20.7467M5.25 18.2467L3.82297 17.4539C3.52346 17.2875 3.37368 17.2043 3.26463 17.0859C3.16816 16.9812 3.09515 16.8572 3.05048 16.722C3 16.5692 3 16.3979 3 16.0552V14.4967M3 9.49667V7.93811C3 7.59547 3 7.42415 3.05048 7.27135C3.09515 7.13617 3.16816 7.01209 3.26463 6.9074C3.37368 6.78907 3.52345 6.70586 3.82297 6.53946L5.25 5.74667M9.75 3.24667L11.223 2.42835C11.5066 2.27079 11.6484 2.19201 11.7986 2.16113C11.9315 2.13379 12.0685 2.13379 12.2015 2.16113C12.3516 2.19201 12.4934 2.27079 12.777 2.42835L14.25 3.24667M18.75 5.74667L20.177 6.53946C20.4766 6.70586 20.6263 6.78906 20.7354 6.9074C20.8318 7.01209 20.9049 7.13617 20.9495 7.27135C21 7.42415 21 7.59547 21 7.93811V9.49667M21 14.4967V16.0552C21 16.3979 21 16.5692 20.9495 16.722C20.9049 16.8572 20.8318 16.9812 20.7354 17.0859C20.6263 17.2043 20.4766 17.2875 20.177 17.4539L18.75 18.2467M9.75 10.7467L12 11.9967M12 11.9967L14.25 10.7467M12 11.9967V14.4967M3 6.99667L5.25 8.24667M18.75 8.24667L21 6.99667M12 19.4967V21.9967" stroke="#B8BCBB" stroke-width="2" stroke-linecap="round" stroke-linejoin="round"/>
</svg>
