<svg width="24" height="24" viewBox="0 0 24 24" fill="none" xmlns="http://www.w3.org/2000/svg">
<path fill-rule="evenodd" clip-rule="evenodd" d="M10.9297 0.88112C11.6553 0.537276 12.5062 0.562242 13.2139 0.955338L21.2139 5.39967C22.0074 5.84055 22.4999 6.67743 22.5 7.58522V16.4075C22.5 17.3154 22.0075 18.1521 21.2139 18.593L13.2139 23.0374C12.4588 23.4568 11.5412 23.4568 10.7861 23.0374L2.78613 18.593C1.99255 18.1521 1.5 17.3153 1.5 16.4075V7.58522C1.50012 6.67743 1.99257 5.84054 2.78613 5.39967L10.7861 0.955338L10.9297 0.88112ZM12 16.4934C11.4478 16.4934 11.0002 16.9413 11 17.4934V18.2932L10.2354 17.8684C9.75283 17.6007 9.14424 17.7749 8.87598 18.2571C8.60779 18.7398 8.78197 19.3492 9.26465 19.6174L11.5146 20.8674C11.8165 21.035 12.1835 21.035 12.4854 20.8674L14.7354 19.6174C15.218 19.3492 15.3922 18.7398 15.124 18.2571C14.8558 17.7749 14.2472 17.6007 13.7646 17.8684L13 18.2932V17.4934C12.9998 16.9413 12.5522 16.4934 12 16.4934ZM4.5 12.4934C3.94782 12.4934 3.50018 12.9413 3.5 13.4934V15.4046C3.5 16.1307 3.89373 16.7998 4.52832 17.1526L6.26465 18.1174C6.74733 18.3854 7.35583 18.2113 7.62402 17.7288C7.89204 17.246 7.71805 16.6366 7.23535 16.3684L5.5 15.4046V13.4934C5.49982 12.9413 5.05218 12.4934 4.5 12.4934ZM19.5 12.4934C18.9478 12.4934 18.5002 12.9413 18.5 13.4934V15.4046L16.7646 16.3684C16.2819 16.6366 16.108 17.246 16.376 17.7288C16.6442 18.2113 17.2527 18.3854 17.7354 18.1174L19.4717 17.1526C20.1063 16.7998 20.5 16.1307 20.5 15.4046V13.4934C20.4998 12.9413 20.0522 12.4934 19.5 12.4934ZM15.124 10.2571C14.8558 9.77489 14.2472 9.60074 13.7646 9.86842L12 10.8479L10.2354 9.86842C9.75283 9.60074 9.14424 9.77489 8.87598 10.2571C8.60779 10.7398 8.78197 11.3492 9.26465 11.6174L11 12.5813V14.4934C11.0002 15.0455 11.4479 15.4934 12 15.4934C12.5521 15.4934 12.9998 15.0455 13 14.4934V12.5813L14.7354 11.6174C15.218 11.3492 15.3922 10.7398 15.124 10.2571ZM7.62402 6.2571C7.35576 5.77489 6.74717 5.60074 6.26465 5.86842L4.01465 7.11842C3.69728 7.29474 3.50012 7.63038 3.5 7.99342V10.4934C3.50022 11.0455 3.94785 11.4934 4.5 11.4934C5.05215 11.4934 5.49978 11.0455 5.5 10.4934V9.69264L6.26465 10.1174C6.74733 10.3854 7.35583 10.2113 7.62402 9.72878C7.89204 9.24603 7.71805 8.63659 7.23535 8.36842L6.55859 7.99245L7.23535 7.61745C7.71803 7.3492 7.89221 6.73983 7.62402 6.2571ZM17.7354 5.86842C17.2528 5.60074 16.6442 5.77489 16.376 6.2571C16.1078 6.73983 16.282 7.3492 16.7646 7.61745L17.4404 7.99245L16.7646 8.36842C16.2819 8.63659 16.108 9.24603 16.376 9.72878C16.6442 10.2113 17.2527 10.3854 17.7354 10.1174L18.5 9.69264V10.4934C18.5002 11.0455 18.9478 11.4934 19.5 11.4934C20.0522 11.4934 20.4998 11.0455 20.5 10.4934V7.99342C20.4999 7.63038 20.3027 7.29474 19.9854 7.11842L17.7354 5.86842ZM12.9717 3.38893C12.3677 3.05345 11.6323 3.05345 11.0283 3.38893L9.26465 4.36842C8.78195 4.63659 8.60796 5.24603 8.87598 5.72878C9.14417 6.21134 9.75267 6.38537 10.2354 6.11745L12 5.13698L13.7646 6.11745C14.2473 6.38537 14.8558 6.21134 15.124 5.72878C15.392 5.24603 15.2181 4.63659 14.7354 4.36842L12.9717 3.38893Z" fill="#31D3D3"/>
</svg>
