<svg width="24" height="24" viewBox="0 0 24 24" fill="none" xmlns="http://www.w3.org/2000/svg">
<path d="M9.5 12C11.9853 12 14 9.98528 14 7.5C14 5.01472 11.9853 3 9.5 3C7.01472 3 5 5.01472 5 7.5C5 9.98528 7.01472 12 9.5 12Z" stroke="#ADB5B2" stroke-width="2" stroke-linecap="round" stroke-linejoin="round"/>
<path d="M9.50081 15C6.67019 15 4.15435 16.5446 2.56004 18.9383C2.21078 19.4628 2.03614 19.725 2.05625 20.0599C2.0719 20.3207 2.24286 20.64 2.45125 20.7976C2.71889 21 3.08698 21 3.82317 21H15.1785C15.9146 21 16.2827 21 16.5504 20.7976C16.7588 20.64 16.9297 20.3207 16.9454 20.0599C16.9655 19.725 16.7909 19.4628 16.4416 18.9383C14.8473 16.5446 12.3314 15 9.50081 15Z" stroke="#ADB5B2" stroke-width="2" stroke-linecap="round" stroke-linejoin="round"/>
<path d="M16 13H22M19 10V16" stroke="#ADB5B2" stroke-width="2" stroke-linecap="round"/>
</svg>
