<svg width="256" height="256" viewBox="0 0 256 256" fill="none" xmlns="http://www.w3.org/2000/svg">
<g clip-path="url(#clip0_3725_75346)">
<path fill-rule="evenodd" clip-rule="evenodd" d="M125.632 90.2C152.635 90.2 182.187 89.2873 200.717 100.492C221.684 113.171 229.921 139.193 229.921 159.495C229.921 183.168 228.01 204.084 200.717 216.587C183.916 224.283 147.564 228.791 125.632 228.791C96.6904 228.791 68.0779 224.428 49.7323 216.587C29.1079 207.771 21.3438 178.51 21.3438 159.495C21.3438 139.451 29.229 113.149 49.7323 100.492C68.35 88.9985 98.2401 90.2 125.632 90.2Z" fill="white"/>
<path fill-rule="evenodd" clip-rule="evenodd" d="M125.699 82.1707C154.172 82.1707 185.255 81.7694 204.793 93.5835C228.277 107.784 237.852 136.749 237.852 159.49C237.852 186.355 234.979 209.712 204.004 223.901C186.476 231.93 148.58 236.809 125.699 236.809C95.5913 236.809 65.8463 232.139 46.7612 223.981C36.8985 219.766 29.3732 211.771 24.0403 202.081C16.6677 188.686 13.5469 172.061 13.5469 159.49C13.5469 137.046 22.771 107.794 45.7289 93.6211C65.3646 81.4993 96.8094 82.1707 125.699 82.1707ZM125.699 90.1942C98.3072 90.1942 68.4171 88.9927 49.7994 100.486C29.2961 113.144 21.4108 139.445 21.4108 159.49C21.4108 178.504 29.175 207.765 49.7994 216.581C68.145 224.422 96.7575 228.785 125.699 228.785C147.631 228.785 183.983 224.277 200.784 216.581C228.077 204.079 229.988 183.162 229.988 159.49C229.988 139.187 221.751 113.165 200.784 100.486C182.254 89.2815 152.702 90.1942 125.699 90.1942Z" fill="black"/>
<path fill-rule="evenodd" clip-rule="evenodd" d="M184.213 112.585C184.213 112.585 209.582 92.4261 184.213 55.8007C186.685 47.1493 186.7 38.498 185.425 29.8468C185.221 28.4264 184.294 27.2228 182.991 26.6834C181.687 26.1437 180.201 26.3491 179.084 27.2228C169.753 34.5221 150.963 49.2275 150.963 49.2275C135.542 46.2552 116.111 45.9162 100.689 49.2275C100.689 49.2275 80.769 34.3811 71.0213 27.1161C69.8918 26.2741 68.4117 26.1007 67.1246 26.6591C65.8375 27.2175 64.9335 28.4256 64.7442 29.8395C63.5551 38.4933 63.146 47.1471 65.7735 55.8007C65.7735 55.8007 43.3964 79.5357 65.7735 108.769" fill="white"/>
<path d="M184.213 112.585C184.213 112.585 209.582 92.4261 184.213 55.8007C186.685 47.1493 186.7 38.498 185.425 29.8468C185.221 28.4264 184.294 27.2228 182.991 26.6834C181.687 26.1437 180.201 26.3491 179.084 27.2228C169.753 34.5221 150.963 49.2275 150.963 49.2275C135.542 46.2552 116.111 45.9162 100.689 49.2275C100.689 49.2275 80.769 34.3811 71.0213 27.1161C69.8918 26.2741 68.4117 26.1007 67.1246 26.6591C65.8375 27.2175 64.9335 28.4256 64.7442 29.8395C63.5551 38.4933 63.146 47.1471 65.7735 55.8007C65.7735 55.8007 43.3964 79.5357 65.7735 108.769" stroke="black" stroke-width="7.59733" stroke-miterlimit="1.5" stroke-linecap="round" stroke-linejoin="round"/>
<path d="M99.7578 102.821C110.101 109.49 120.15 97.8125 126.331 97.8125C132.874 97.8125 144.77 108.699 151.899 102.821" stroke="black" stroke-width="7.62227" stroke-miterlimit="1.5" stroke-linecap="round" stroke-linejoin="round"/>
<path fill-rule="evenodd" clip-rule="evenodd" d="M131.445 90.1875L125.783 93.9985L120.172 90.1875H131.445Z" stroke="black" stroke-width="7.46378" stroke-miterlimit="1.5" stroke-linecap="round" stroke-linejoin="round"/>
<path d="M111.245 79.5596C111.245 79.5596 102.01 68.2953 90.4844 77.3067" stroke="black" stroke-width="6.52064" stroke-miterlimit="1.5" stroke-linecap="round" stroke-linejoin="round"/>
<path d="M139.208 79.5596C139.208 79.5596 148.443 68.2953 159.969 77.3067" stroke="black" stroke-width="6.52064" stroke-miterlimit="1.5" stroke-linecap="round" stroke-linejoin="round"/>
<path fill-rule="evenodd" clip-rule="evenodd" d="M169.882 192.293C110.339 227.636 49.8203 192.325 49.8203 171.123C49.8203 171.123 60.3375 143.326 104.638 143.326C104.638 143.326 115.24 132.967 140.841 135.623L144.403 143.326C144.403 143.326 164.661 148.126 174.724 158.211C174.724 158.211 188.883 142.271 204.232 148.415C212.293 151.643 208.121 170.943 188.159 175.482C188.159 175.482 210.217 186.556 204.232 195.084C195.96 206.871 177.936 202.942 169.882 192.293Z" fill="#0CA3FA" stroke="#0CA3FA" stroke-width="7.62227" stroke-miterlimit="1.5" stroke-linecap="round" stroke-linejoin="round"/>
<path d="M97.0234 164.914C97.0234 164.914 101.869 173.871 97.0773 185.329" stroke="black" stroke-width="7.58175" stroke-miterlimit="1.5" stroke-linecap="round" stroke-linejoin="round"/>
<path d="M64.7944 173.567L78.3115 172.591" stroke="black" stroke-width="7.35311" stroke-miterlimit="1.5" stroke-linecap="round" stroke-linejoin="round"/>
<path fill-rule="evenodd" clip-rule="evenodd" d="M48.6719 130.86C48.6719 130.86 89.1353 117.374 104.414 128.459C120.092 139.834 101.768 168.878 69.2667 147.866" fill="white"/>
<path d="M48.6719 130.86C48.6719 130.86 89.1353 117.374 104.414 128.459C120.092 139.834 101.768 168.878 69.2667 147.866" stroke="black" stroke-width="7.61404" stroke-miterlimit="1.5" stroke-linecap="round" stroke-linejoin="round"/>
</g>
<defs>
<clipPath id="clip0_3725_75346">
<rect width="228.961" height="217.6" fill="white" transform="translate(13.5469 19.1875)"/>
</clipPath>
</defs>
</svg>
