<svg width="20" height="20" viewBox="0 0 20 20" fill="none" xmlns="http://www.w3.org/2000/svg">
<path d="M17.5028 3.83042C17.5028 3.58352 17.5018 3.4482 17.4939 3.35109C17.4936 3.34734 17.4925 3.34386 17.4922 3.34051C17.4891 3.34022 17.4859 3.33997 17.4825 3.33969C17.3854 3.33176 17.25 3.33074 17.0031 3.33074H3.00249C2.75559 3.33074 2.62027 3.33176 2.52316 3.33969C2.51944 3.34 2.51591 3.3402 2.51258 3.34051C2.51227 3.34384 2.51207 3.34737 2.51176 3.35109C2.50383 3.4482 2.50281 3.58352 2.50281 3.83042V4.38868C2.50281 4.5085 2.50309 4.56881 2.50525 4.61248C2.50531 4.61361 2.5052 4.6147 2.50525 4.61573C2.50605 4.6165 2.50683 4.61735 2.5077 4.61818C2.53928 4.64841 2.58478 4.68781 2.67534 4.76629L8.00493 9.38543C8.14101 9.50337 8.32653 9.65562 8.46229 9.85418C8.54294 9.97221 8.60804 10.1 8.65597 10.2342L8.69829 10.3709L8.73247 10.5459C8.75641 10.7196 8.75281 10.8878 8.75281 11.0228V16.2661L11.2528 15.266V11.0228C11.2528 10.8427 11.2462 10.6035 11.3073 10.3709C11.3558 10.1865 11.4357 10.0116 11.5433 9.85418C11.6791 9.65562 11.8646 9.50337 12.0007 9.38543L17.3303 4.76629C17.4208 4.68781 17.4663 4.64841 17.4979 4.61818C17.4986 4.61749 17.4989 4.61637 17.4996 4.61573C17.4996 4.61468 17.5003 4.61362 17.5004 4.61248C17.5025 4.56881 17.5028 4.5085 17.5028 4.38868V3.83042ZM19.1695 4.38868C19.1695 4.56874 19.1761 4.80797 19.115 5.04054C19.0665 5.225 18.9866 5.39983 18.879 5.5573C18.7432 5.75587 18.5577 5.90811 18.4216 6.02605L13.092 10.6452C13.0014 10.7237 12.9559 10.7631 12.9244 10.7933C12.9236 10.794 12.9226 10.7943 12.9219 10.7949C12.9218 10.7962 12.922 10.7976 12.9219 10.799C12.9198 10.8427 12.9195 10.903 12.9195 11.0228V15.3791C12.9195 15.4755 12.932 15.7401 12.8405 15.9854C12.7709 16.1721 12.6576 16.3396 12.5101 16.4736C12.3164 16.6497 12.0658 16.7365 11.9763 16.7723L9.14344 17.9051C9.00513 17.9604 8.84882 18.0238 8.71212 18.0646C8.57322 18.1061 8.34461 18.1608 8.08143 18.1061C7.75904 18.0391 7.47642 17.8467 7.29448 17.5723C7.14614 17.3484 7.11147 17.1169 7.09835 16.9725C7.08546 16.8304 7.08615 16.6617 7.08615 16.5127V11.0228C7.08615 10.903 7.08587 10.8427 7.0837 10.799C7.08363 10.7976 7.08296 10.7962 7.08289 10.7949L7.08126 10.7933C7.04968 10.7631 7.00418 10.7237 6.91362 10.6452L1.58403 6.02605C1.44794 5.90811 1.26243 5.75587 1.12667 5.5573C1.01906 5.39983 0.939152 5.225 0.890671 5.04054C0.829556 4.80797 0.836143 4.56874 0.836146 4.38868V3.83042C0.836145 3.61092 0.835219 3.39586 0.84998 3.21518C0.86556 3.02476 0.902445 2.79996 1.01762 2.5739C1.1774 2.26036 1.43243 2.00533 1.74598 1.84555C1.97203 1.73037 2.19683 1.69349 2.38725 1.67791C2.56793 1.66315 2.783 1.66407 3.00249 1.66407H17.0031C17.2226 1.66407 17.4377 1.66315 17.6184 1.67791C17.8088 1.69349 18.0336 1.73037 18.2596 1.84555C18.534 1.98536 18.7636 2.19812 18.9237 2.45916L18.988 2.5739L19.0604 2.74318C19.12 2.91054 19.144 3.07245 19.1556 3.21518C19.1704 3.39586 19.1695 3.61092 19.1695 3.83042V4.38868Z" fill="#ECEEED"/>
</svg>
